<?xml version="1.0" standalone="no"?>
<!DOCTYPE svg PUBLIC "-//W3C//DTD SVG 20010904//EN"
 "http://www.w3.org/TR/2001/REC-SVG-20010904/DTD/svg10.dtd">
<svg version="1.0" xmlns="http://www.w3.org/2000/svg"
 width="512.000000pt" height="512.000000pt" viewBox="0 0 512.000000 512.000000"
 preserveAspectRatio="xMidYMid meet">

<g transform="translate(0.000000,512.000000) scale(0.100000,-0.100000)"
fill="#000000" stroke="none">
<path d="M2355 5100 c-384 -29 -665 -171 -735 -371 -13 -35 -18 -38 -152 -89
-252 -95 -508 -229 -768 -403 -306 -204 -661 -501 -681 -569 -5 -18 -12 -91
-15 -162 -20 -412 120 -729 379 -860 l75 -38 231 156 c128 86 238 159 245 162
10 4 15 -21 20 -113 20 -355 70 -846 132 -1292 37 -273 131 -854 163 -1011
l19 -95 70 -65 c204 -192 541 -306 967 -329 444 -24 842 48 1068 193 77 48
153 120 182 171 46 80 177 660 250 1106 57 353 105 767 121 1044 4 66 10 128
14 139 5 14 43 -28 181 -205 204 -261 217 -271 324 -267 258 11 594 392 662
751 23 123 15 180 -49 340 -244 607 -774 1079 -1470 1307 l-98 32 0 37 c0 53
-44 134 -101 185 -53 48 -189 122 -284 154 -219 74 -511 110 -750 92z m350
-50 c429 -49 738 -211 738 -385 0 -173 -352 -547 -916 -971 -227 -172 -212
-170 -341 -31 -147 158 -229 260 -327 407 -151 225 -213 378 -213 530 0 103
27 171 94 238 103 102 335 190 570 215 77 8 310 6 395 -3z m-1102 -487 c17
-243 226 -593 556 -935 111 -116 142 -132 200 -108 37 15 252 177 452 340 182
148 434 391 530 510 52 65 117 171 135 218 3 6 260 -85 349 -125 452 -200 817
-513 1054 -906 56 -92 126 -235 119 -242 -2 -2 -21 0 -42 6 -110 30 -281 -55
-436 -217 -166 -174 -277 -402 -297 -607 l-8 -78 -131 168 c-72 92 -136 177
-141 188 -14 26 -58 240 -83 401 -47 313 -51 593 -10 787 20 94 20 117 0 117
-27 0 -56 -128 -71 -309 -12 -143 0 -360 31 -570 11 -79 15 -128 9 -132 -19
-11 -220 -51 -233 -46 -7 3 -15 23 -18 44 -15 109 -116 236 -234 294 -65 32
-74 34 -179 34 -108 0 -113 -1 -187 -38 -92 -45 -157 -112 -202 -207 -24 -53
-31 -81 -34 -152 l-4 -88 -152 0 c-405 0 -860 57 -1214 151 -127 33 -312 94
-356 116 l-29 15 8 241 c12 352 13 341 -6 345 -9 2 -20 -5 -24 -15 -4 -10 -10
-189 -13 -398 l-5 -380 -242 -164 -242 -163 -50 26 c-249 126 -384 454 -353
861 l9 118 38 40 c107 111 420 361 620 495 189 127 431 261 613 340 90 39 248
100 261 101 3 1 9 -34 12 -76z m1690 -1233 c75 -28 159 -105 200 -184 30 -57
32 -67 32 -166 0 -93 -3 -112 -27 -162 -34 -74 -107 -146 -183 -184 -54 -26
-70 -29 -160 -29 -93 0 -105 2 -167 33 -151 74 -240 245 -209 399 49 247 283
379 514 293z m1698 -73 c55 -36 79 -96 79 -197 0 -278 -233 -645 -493 -775
-127 -63 -221 -54 -275 27 -56 86 -38 280 44 456 77 167 228 353 357 437 113
75 224 95 288 52z m-3864 -172 c392 -133 827 -202 1325 -212 l287 -6 30 -63
c61 -130 183 -222 323 -246 220 -36 439 124 479 349 l11 61 76 17 c43 9 100
22 128 29 l50 13 31 -141 c26 -118 30 -155 26 -227 -5 -85 -6 -86 -37 -98
-524 -210 -1203 -238 -2091 -86 -261 45 -735 151 -753 170 -9 9 -32 485 -24
485 2 0 65 -20 139 -45z m48 -534 c1066 -265 1964 -292 2583 -76 l124 43 -6
-56 c-3 -32 -13 -136 -21 -232 -9 -96 -20 -184 -24 -195 -6 -14 -40 -32 -111
-58 -634 -235 -1633 -188 -2583 120 -60 19 -78 29 -82 46 -7 33 -35 360 -35
407 0 35 3 41 18 36 9 -3 71 -19 137 -35z m-49 -502 c276 -96 769 -202 1134
-245 188 -22 614 -30 792 -15 249 21 485 70 683 142 47 17 88 30 90 28 6 -7
-64 -472 -73 -481 -14 -14 -193 -75 -300 -102 -150 -38 -326 -64 -523 -77
-471 -32 -1105 60 -1674 242 -71 22 -131 42 -133 44 -2 2 -61 464 -62 483 0 4
6 2 66 -19z m139 -559 c348 -113 783 -200 1160 -231 203 -17 603 -7 773 20
164 25 305 59 442 105 57 19 105 34 107 33 5 -6 -67 -376 -111 -569 -63 -274
-102 -413 -126 -453 -81 -131 -334 -254 -635 -306 -114 -21 -163 -23 -410 -23
-249 -1 -294 2 -409 23 -313 55 -544 155 -691 296 l-62 60 -42 236 c-44 254
-131 803 -131 831 0 10 3 18 7 18 3 0 61 -18 128 -40z"/>
<path d="M2315 4896 c-238 -40 -336 -92 -394 -208 -27 -53 -31 -72 -31 -142 0
-177 100 -404 292 -661 106 -142 137 -147 284 -47 359 244 610 496 685 689 30
79 31 181 1 244 -13 25 -42 65 -67 89 -37 37 -46 41 -60 30 -13 -11 -10 -18
29 -60 63 -68 106 -172 49 -118 -71 67 -208 134 -342 170 -99 26 -332 33 -446
14z m465 -65 c99 -29 233 -100 298 -157 48 -42 52 -49 46 -78 -20 -96 -115
-238 -249 -371 -169 -167 -493 -408 -548 -408 -38 0 -69 34 -178 197 -150 223
-212 375 -213 521 0 74 3 97 21 131 72 135 257 196 578 190 138 -3 184 -8 245
-25z"/>
<path  d="M3035 3226 c-58 -26 -109 -81 -137 -144 -25 -55 -22 -168 6 -224 59
-122 197 -182 331 -144 77 23 154 98 180 175 43 130 -16 275 -137 335 -70 35
-171 36 -243 2z m196 -31 c126 -45 188 -197 130 -318 -40 -83 -112 -127 -206
-127 -136 0 -229 93 -230 230 0 53 5 73 28 112 58 99 170 141 278 103z"/>
</g>
</svg>
